<?xml version="1.0" encoding="utf-8"?>
<!-- Generator: Adobe Illustrator 27.9.0, SVG Export Plug-In . SVG Version: 6.00 Build 0)  -->
<svg version="1.1" id="Layer_1" xmlns="http://www.w3.org/2000/svg" xmlns:xlink="http://www.w3.org/1999/xlink" x="0px" y="0px"
	 viewBox="0 0 612 792" style="enable-background:new 0 0 612 792;" xml:space="preserve">
<style type="text/css">
	.st0{fill:none;}
	.st1{fill:#2A3F55;}
	.st2{font-family:'Brother-1816-Regular';}
	.st3{font-size:21.0135px;}
</style>
<rect x="73.15" y="262.9" class="st0" width="272.03" height="50"/>
<g>
	<path class="st1" d="M154.51,243.3c-6.8-3.02-17.67-6.78-30.99-6.78c-23.76,0-40.85,15.07-40.85,35.53
		c0,20.46,17.09,35.53,40.85,35.53c14.05,0,24.91-3.64,31.72-6.65v11.42c-3.48,1.76-15.21,6.4-31.72,6.4
		c-31.58,0-54.9-19.84-54.9-46.7c0-26.87,23.32-46.7,54.9-46.7c15.79,0,27.52,4.77,30.99,6.53V243.3z"/>
	<path class="st1" d="M202.44,227.12l41.68,91.9h-12.81c-2.59-5.83-4.41-10.82-7.28-16.51c-0.19-0.37-0.35-0.57-1.48-3.38
		c-0.05-0.12-1.71-4.24-2.34-4.34c-1.28-0.2-10.24,2.9-10.24,2.9c-6.76,2.28-21.63,8.8-21.63,8.8c-5.04,2.95-6.94,3.85-8.44,4.9
		c-5.01,3.51-1.35,7.02-5.34,7.63c-0.58,0.09-0.95,0.07-1.71,0.03c-2.74-0.12-6.8-0.2-12.35-0.01
		C160.51,319.01,202.19,227.12,202.44,227.12z M218.01,289.01c-6.15-13.81-10.8-24.61-15.7-37.41
		c-5.02,12.8-12.15,28.78-18.31,42.59L218.01,289.01z M202.31,251.6c-0.65-1.83-1.3-3.67-1.96-5.5c-2.26-6.34-2.14-6.04-2.46-6.91
		c-0.69-1.88-0.97-2.58-1.45-4.05c-0.28-0.85,5.01-10.51,5.18-10.08c0.81,2.05,0.5,1.13,0.81,2.05"/>
	<path class="st1" d="M282.38,226.74c19.84,0,31.77,10.45,31.77,28.04c0,13.77-8.79,22.69-18.46,25.74
		c2,5.01,6.82,14.98,17.36,22.23c3.89,2.67,7.68,4.37,10.89,5.47c0.03,0.87,0.04,1.58,0.04,2.02c0,2.97-0.25,4.46-0.26,8
		c0,0.23,0,0.41,0,0.51c-3.28-0.37-8.43-1.34-14.03-4.2c-9.27-4.72-14.3-11.81-17.55-16.4c-2.38-3.35-5.57-8.55-8.11-15.59
		c-6.28,0-12.56,0-18.83,0v35.95h-12.05v-91.77H282.38z M265.18,237.06v35.43H283c11.93,0,19.08-6.63,19.08-17.72
		s-7.53-17.72-20.09-17.72H265.18z"/>
	<path class="st1" d="M187.49,272.05"/>
	<path class="st1" d="M374.9,227.12l41.68,91.9h-12.81c-2.59-5.83-4.41-10.82-7.28-16.51c-0.19-0.37-0.35-0.57-1.48-3.38
		c-0.05-0.12-1.71-4.24-2.34-4.34c-1.28-0.2-10.24,2.9-10.24,2.9c-6.76,2.28-21.63,8.8-21.63,8.8c-5.04,2.95-6.94,3.85-8.44,4.9
		c-5.01,3.51-1.35,7.02-5.34,7.63c-0.58,0.09-0.95,0.07-1.71,0.03c-2.74-0.12-6.8-0.2-12.35-0.01
		C332.97,319.01,374.65,227.12,374.9,227.12z M390.47,289.01c-6.15-13.81-10.8-24.61-15.7-37.41c-5.02,12.8-12.15,28.78-18.31,42.59
		L390.47,289.01z M374.78,251.6c-0.65-1.83-1.3-3.67-1.96-5.5c-2.26-6.34-2.14-6.04-2.46-6.91c-0.69-1.88-0.97-2.58-1.45-4.05
		c-0.28-0.85,5.01-10.51,5.18-10.08c0.81,2.05,0.5,1.13,0.81,2.05"/>
</g>
<path d="M138.67,207.8"/>
<text transform="matrix(1 0 0 1 426.1203 318.7532)" class="st2 st3">Systems, Inc.</text>
</svg>
