<?xml version="1.0" encoding="UTF-8"?>
<svg id="Layer_2" data-name="Layer 2" xmlns="http://www.w3.org/2000/svg" viewBox="0 0 13.15 3.55">
  <defs>
    <style>
      .cls-1 {
        fill: #96a2c0;
        stroke-width: 0px;
      }
    </style>
  </defs>
  <g id="Layer_1-2" data-name="Layer 1">
    <g>
      <path class="cls-1" d="m3.25.69c-.26-.11-.67-.26-1.17-.26C1.18.43.53,1,.53,1.78s.65,1.34,1.54,1.34c.53,0,.94-.14,1.2-.25v.43c-.13.07-.57.24-1.2.24C.88,3.54,0,2.79,0,1.78S.88.01,2.07.01C2.67.01,3.11.19,3.25.26v.43Z"/>
      <path class="cls-1" d="m5.06.08l1.57,3.47h-.48c-.1-.22-.17-.41-.27-.62,0-.01-.01-.02-.06-.13,0,0-.06-.16-.09-.16-.05,0-.39.11-.39.11-.26.09-.82.33-.82.33-.19.11-.26.15-.32.19-.19.13-.05.27-.2.29-.02,0-.04,0-.06,0-.1,0-.26,0-.47,0C3.47,3.55,5.05.08,5.06.08Zm.59,2.34c-.23-.52-.41-.93-.59-1.41-.19.48-.46,1.09-.69,1.61l1.28-.2Zm-.59-1.41c-.02-.07-.05-.14-.07-.21-.09-.24-.08-.23-.09-.26-.03-.07-.04-.1-.05-.15-.01-.03.19-.4.2-.38.03.08.02.04.03.08"/>
      <path class="cls-1" d="m8.08.06c.75,0,1.2.39,1.2,1.06,0,.52-.33.86-.7.97.08.19.26.57.66.84.15.1.29.17.41.21,0,.03,0,.06,0,.08,0,.11,0,.17,0,.3,0,0,0,.02,0,.02-.12-.01-.32-.05-.53-.16-.35-.18-.54-.45-.66-.62-.09-.13-.21-.32-.31-.59h-.71v1.36h-.46V.06h1.11Zm-.65.39v1.34h.67c.45,0,.72-.25.72-.67s-.28-.67-.76-.67h-.64Z"/>
      <path class="cls-1" d="m11.57.08l1.57,3.47h-.48c-.1-.22-.17-.41-.27-.62,0-.01-.01-.02-.06-.13,0,0-.06-.16-.09-.16-.05,0-.39.11-.39.11-.26.09-.82.33-.82.33-.19.11-.26.15-.32.19-.19.13-.05.27-.2.29-.02,0-.04,0-.06,0-.1,0-.26,0-.47,0,0,0,1.57-3.47,1.58-3.47Zm.59,2.34c-.23-.52-.41-.93-.59-1.41-.19.48-.46,1.09-.69,1.61l1.28-.2Zm-.59-1.41c-.02-.07-.05-.14-.07-.21-.09-.24-.08-.23-.09-.26-.03-.07-.04-.1-.05-.15-.01-.03.19-.4.2-.38.03.08.02.04.03.08"/>
    </g>
  </g>
</svg>